<svg width="128" height="128" viewBox="0 0 128 128" fill="none" xmlns="http://www.w3.org/2000/svg">
<rect width="128" height="128" fill="#222831"/>
<path d="M38.1211 103L31.3443 104.754L32.7018 110H38.1211V103ZM21.5195 38.8398L28.2963 37.0863L27.1015 32.4687L22.3669 31.8913L21.5195 38.8398ZM15.5137 38.1074H8.51367V44.3056L14.6663 45.0559L15.5137 38.1074ZM15.5137 31.9062V24.9062H8.51367V31.9062H15.5137ZM38.5605 31.9062H45.5605V24.9062H38.5605V31.9062ZM38.5605 38.1074L39.6146 45.0276L45.5605 44.1219V38.1074H38.5605ZM31.1875 39.2305L30.1334 32.3103L22.6231 33.4542L24.3765 40.8461L31.1875 39.2305ZM40.4648 78.3418L47.2788 76.7385L47.2759 76.7262L40.4648 78.3418ZM42.6133 87.4727L35.7994 89.0759L36.8665 93.6114L41.4625 94.3774L42.6133 87.4727ZM42.9062 87.5215L41.7555 94.4262L47.7821 95.4307L49.592 89.5952L42.9062 87.5215ZM45.7383 78.3906L52.4241 80.4643L52.4263 80.457L52.4286 80.4497L45.7383 78.3906ZM60.0449 31.9062V24.9062H54.8753L53.3546 29.8472L60.0449 31.9062ZM68.4922 31.9062L75.1765 29.8279L73.6463 24.9062H68.4922V31.9062ZM82.9453 78.3906L89.6721 76.4541L89.6516 76.383L89.6297 76.3123L82.9453 78.3906ZM85.7285 88.0586L79.0017 89.9951L80.4594 95.0586H85.7285V88.0586ZM86.0215 88.0586V95.0586H91.4205L92.7919 89.8367L86.0215 88.0586ZM88.5605 78.3906L95.331 80.1687L95.3546 80.0788L95.3758 79.9882L88.5605 78.3906ZM97.7402 39.2305L104.555 40.8281L106.304 33.3695L98.7183 32.2991L97.7402 39.2305ZM89.7812 38.1074H82.7812V44.189L88.8032 45.0388L89.7812 38.1074ZM89.7812 31.9062V24.9062H82.7812V31.9062H89.7812ZM112.438 31.9062H119.438V24.9062H112.438V31.9062ZM112.438 38.1074L113.343 45.0486L119.438 44.2537V38.1074H112.438ZM106.822 38.8398L105.917 31.8986L101.179 32.5167L100.028 37.1543L106.822 38.8398ZM90.9043 103V110H96.3798L97.6983 104.686L90.9043 103ZM81.7734 103L75.094 105.094L76.632 110H81.7734V103ZM66.3438 53.7812L59.5893 55.6192L59.6244 55.7479L59.6643 55.8752L66.3438 53.7812ZM64.3906 46.6035L71.145 44.7656L69.7404 39.6035H64.3906V46.6035ZM64.0977 46.6035V39.6035H58.7126L57.3317 44.8085L64.0977 46.6035ZM62.1934 53.7812L68.8709 55.8812L68.9186 55.7298L68.9593 55.5763L62.1934 53.7812ZM46.7148 103V110H51.8514L53.3924 105.1L46.7148 103ZM44.8979 101.246L28.2963 37.0863L14.7427 40.5934L31.3443 104.754L44.8979 101.246ZM22.3669 31.8913L16.3611 31.1589L14.6663 45.0559L20.6722 45.7884L22.3669 31.8913ZM22.5137 38.1074V31.9062H8.51367V38.1074H22.5137ZM15.5137 38.9062H38.5605V24.9062H15.5137V38.9062ZM31.5605 31.9062V38.1074H45.5605V31.9062H31.5605ZM37.5065 31.1872L30.1334 32.3103L32.2416 46.1507L39.6146 45.0276L37.5065 31.1872ZM24.3765 40.8461L33.6538 79.9574L47.2759 76.7262L37.9985 37.6149L24.3765 40.8461ZM33.6509 79.9451L35.7994 89.0759L49.4272 85.8694L47.2788 76.7385L33.6509 79.9451ZM41.4625 94.3774L41.7555 94.4262L44.057 80.6167L43.7641 80.5679L41.4625 94.3774ZM49.592 89.5952L52.4241 80.4643L39.0525 76.317L36.2205 85.4478L49.592 89.5952ZM52.4286 80.4497L66.7352 33.9653L53.3546 29.8472L39.048 76.3315L52.4286 80.4497ZM60.0449 38.9062H68.4922V24.9062H60.0449V38.9062ZM61.8078 33.9846L76.261 80.469L89.6297 76.3123L75.1765 29.8279L61.8078 33.9846ZM76.2185 80.3271L79.0017 89.9951L92.4553 86.1221L89.6721 76.4541L76.2185 80.3271ZM85.7285 95.0586H86.0215V81.0586H85.7285V95.0586ZM92.7919 89.8367L95.331 80.1687L81.7901 76.6125L79.2511 86.2805L92.7919 89.8367ZM95.3758 79.9882L104.555 40.8281L90.925 37.6329L81.7453 76.793L95.3758 79.9882ZM98.7183 32.2991L90.7593 31.1761L88.8032 45.0388L96.7622 46.1618L98.7183 32.2991ZM96.7812 38.1074V31.9062H82.7812V38.1074H96.7812ZM89.7812 38.9062H112.438V24.9062H89.7812V38.9062ZM105.438 31.9062V38.1074H119.438V31.9062H105.438ZM111.532 31.1662L105.917 31.8986L107.728 45.781L113.343 45.0486L111.532 31.1662ZM100.028 37.1543L84.1103 101.314L97.6983 104.686L113.616 40.5254L100.028 37.1543ZM90.9043 96H81.7734V110H90.9043V96ZM88.4529 100.906L73.0232 51.6873L59.6643 55.8752L75.094 105.094L88.4529 100.906ZM73.0982 51.9433L71.145 44.7656L57.6362 48.4414L59.5893 55.6192L73.0982 51.9433ZM64.3906 39.6035H64.0977V53.6035H64.3906V39.6035ZM57.3317 44.8085L55.4274 51.9862L68.9593 55.5763L70.8636 48.3986L57.3317 44.8085ZM55.5158 51.6813L40.0373 100.9L53.3924 105.1L68.8709 55.8812L55.5158 51.6813ZM46.7148 96H38.1211V110H46.7148V96Z" fill="#54B689"/>
</svg>
